<?xml version="1.0" encoding="utf-8"?>
<!-- Generator: Adobe Illustrator 28.4.1, SVG Export Plug-In . SVG Version: 6.00 Build 0)  -->
<svg version="1.1" id="Layer_1" xmlns="http://www.w3.org/2000/svg" xmlns:xlink="http://www.w3.org/1999/xlink" x="0px" y="0px"
	 viewBox="0 0 643.5 643.4" style="enable-background:new 0 0 643.5 643.4;" xml:space="preserve">
<style type="text/css">
	.st0{fill:#FFFFFF;}
</style>
<path class="st0" d="M554.6,643.4c-24.5,0-44.4-19.9-44.4-44.5c0-11.8,4.7-23.1,13-31.4l44.4-44.4c17.4-17.4,45.5-17.4,62.9,0
	c17.4,17.4,17.4,45.5,0,62.9l0,0l-44.4,44.4C577.7,638.7,566.4,643.4,554.6,643.4L554.6,643.4z M304,643.4
	c-24.5,0-44.4-19.9-44.4-44.5c0-11.8,4.7-23.1,13-31.4l295-295c17.4-17.4,45.5-17.4,62.9,0c17.4,17.4,17.4,45.5,0,62.9l0,0l-295,295
	C327.2,638.7,315.9,643.4,304,643.4L304,643.4z M44.4,643.4C19.9,643.4,0,623.5,0,599c0-11.8,4.7-23.1,13-31.4L567.5,13
	c17.4-17.4,45.5-17.4,62.9,0s17.4,45.5,0,62.9L75.9,630.4C67.5,638.7,56.2,643.4,44.4,643.4z"/>
</svg>
